/* XPM */
static char *_9629_2066a7b8ad421bcc8721a68ad64d58288ad321676d4d7ac53378e89a3cf5be56[] = {
/* columns rows colors chars-per-pixel */
"16 16 83 1 ",
"  c #FF7F01",
". c #FF8001",
"X c #FF8102",
"o c #FF8203",
"O c #FF8304",
"+ c #FF8405",
"@ c #FF8406",
"# c #FF8507",
"$ c #FF8608",
"% c #FF8709",
"& c #FF870A",
"* c #FF880B",
"= c #FF890C",
"- c #FF890D",
"; c #FF8A0F",
": c #FF8B10",
"> c #FF8C11",
", c #FF8C13",
"< c #FF8D14",
"1 c #FF8E15",
"2 c #FF8F17",
"3 c #FF8F18",
"4 c #FF901A",
"5 c #FF911B",
"6 c #FF921D",
"7 c #FF901F",
"8 c #FF921E",
"9 c #FF9320",
"0 c #FF9422",
"q c #FF9523",
"w c #FF9525",
"e c #FF9627",
"r c #FF9728",
"t c #FF982A",
"y c #FF982C",
"u c #FF992D",
"i c #FF9A2E",
"p c #FF9B31",
"a c #FF9B33",
"s c #FF9C34",
"d c #FF9D36",
"f c #FF9E38",
"g c #FF9E39",
"h c #FF9E3A",
"j c #FF9F3B",
"k c #FFA03D",
"l c #FFA03F",
"z c #FFA13F",
"x c #FFA140",
"c c #FFA242",
"v c #FFA344",
"b c #FFA345",
"n c #FFA447",
"m c #FFA549",
"M c #FFA54A",
"N c #FFA64C",
"B c #FFA74E",
"V c #FFA74F",
"C c #FFA851",
"Z c #FFA852",
"A c #FFAA55",
"S c #FFAA57",
"D c #FFAB58",
"F c #FFAB59",
"G c #FFAC5B",
"H c #FFAC5C",
"J c #FFAD5D",
"K c #FFAD5F",
"L c #FFAE60",
"P c #FFAE61",
"I c #FFAF62",
"U c #FFB064",
"Y c #FFB065",
"T c #FFBD77",
"R c #FFCB97",
"E c #FFD5A8",
"W c #FFDCB9",
"Q c #FFEFE0",
"! c #FFF3E8",
"~ c #FFFBF6",
"^ c #FFFEFC",
"/ c white",
"( c None",
/* pixels */
"((((((((((((((((",
"(((((//////(((((",
"((((NCAFJPU!((((",
"(((lvmBZSGKIY(((",
"((/djx~///DHL/((",
"((rua/kcnN/AFQ((",
"(/9wt/sglvmBZS/(",
"(<360e/pdjxbMVW(",
"(->148q/u/fkcnR(",
"(/*;,259wt/shz/(",
"((@%=~<360/ypT((",
"(((7#&E//^8qr(((",
"(((.o+$*;,259(((",
"(((( XO@%=:i((((",
"((((((((((((((((",
"(((((((((((((((("
};
