/* XPM */
static char *_679_f37b2afc9407f857c2a1b5d119dcb1445669fcb08510a9ee028aac4c9ae076dc[] = {
/* columns rows colors chars-per-pixel */
"32 32 190 2 ",
"   c #FF7E01",
".  c #FF7F01",
"X  c #FF8001",
"o  c #FF8102",
"O  c #FF8203",
"+  c #FF8204",
"@  c #FF8304",
"#  c #FF8305",
"$  c #FF8405",
"%  c #FF8406",
"&  c #FF8507",
"*  c #FF8608",
"=  c #FF8609",
"-  c #FF8709",
";  c #FF870A",
":  c #FF880B",
">  c #FF880C",
",  c #FF890C",
"<  c #FF890D",
"1  c #FF8A0E",
"2  c #FF8A0F",
"3  c #FF8B0F",
"4  c #FF8B10",
"5  c #FF8B11",
"6  c #FF8C11",
"7  c #FF8C12",
"8  c #FF8C13",
"9  c #FF8D13",
"0  c #FF8D14",
"q  c #FF8D15",
"w  c #FF8E15",
"e  c #FF8E16",
"r  c #FF8F17",
"t  c #FF8F18",
"y  c #FF8E1D",
"u  c #FF9019",
"i  c #FF901A",
"p  c #FF901B",
"a  c #FF911B",
"s  c #FF911C",
"d  c #FF921D",
"f  c #FF921E",
"g  c #FF931F",
"h  c #FF9320",
"j  c #FF9321",
"k  c #FF9421",
"l  c #FF9422",
"z  c #FF9523",
"x  c #FF9524",
"c  c #FF9525",
"v  c #FF9626",
"b  c #FF9627",
"n  c #FF9727",
"m  c #FF9728",
"M  c #FF9729",
"N  c #FF982A",
"B  c #FF982B",
"V  c #FF982C",
"C  c #FF992C",
"Z  c #FF992D",
"A  c #FF992E",
"S  c #FF9A2E",
"D  c #FF9A2F",
"F  c #FF9A30",
"G  c #FF9B30",
"H  c #FF9B31",
"J  c #FF9B32",
"K  c #FF9A33",
"L  c #FF9B33",
"P  c #FF9C33",
"I  c #FF9C34",
"U  c #FF9C35",
"Y  c #FF9D35",
"T  c #FF9D36",
"R  c #FF9D37",
"E  c #FF9E36",
"W  c #FF9E38",
"Q  c #FF9E39",
"!  c #FF9E3A",
"~  c #FF9F3A",
"^  c #FF9F3B",
"/  c #FF9F3C",
"(  c #FFA03D",
")  c #FFA03E",
"_  c #FFA03F",
"`  c #FFA13F",
"'  c #FFA140",
"]  c #FFA141",
"[  c #FFA241",
"{  c #FFA242",
"}  c #FFA243",
"|  c #FFA344",
" . c #FFA345",
".. c #FFA346",
"X. c #FFA446",
"o. c #FFA447",
"O. c #FFA547",
"+. c #FFA448",
"@. c #FFA549",
"#. c #FFA54A",
"$. c #FFA64B",
"%. c #FFA74B",
"&. c #FFA64C",
"*. c #FFA64D",
"=. c #FFA64E",
"-. c #FFA74E",
";. c #FFA74F",
":. c #FFA84C",
">. c #FFA750",
",. c #FFA851",
"<. c #FFA852",
"1. c #FFA953",
"2. c #FFA954",
"3. c #FFAA55",
"4. c #FFAA56",
"5. c #FFAA57",
"6. c #FFAB57",
"7. c #FFAC57",
"8. c #FFAB58",
"9. c #FFAB59",
"0. c #FFAC58",
"q. c #FFAC5A",
"w. c #FFAC5B",
"e. c #FFAC5C",
"r. c #FFAD5D",
"t. c #FFAD5E",
"y. c #FFAD5F",
"u. c #FFAE5F",
"i. c #FFAE60",
"p. c #FFAE61",
"a. c #FFAF61",
"s. c #FFAF62",
"d. c #FFAF63",
"f. c #FFAF64",
"g. c #FFB064",
"h. c #FFB065",
"j. c #FFB167",
"k. c #FFB267",
"l. c #FFB369",
"z. c #FFB56E",
"x. c #FFB66F",
"c. c #FFB872",
"v. c #FFB874",
"b. c #FFBD79",
"n. c #FFC080",
"m. c #FFC085",
"M. c #FFC485",
"N. c #FFC486",
"B. c #FFC990",
"V. c #FFCA92",
"C. c #FFCC95",
"Z. c #FFCC9B",
"A. c #FFD1A4",
"S. c #FFD3A8",
"D. c #FFD4A8",
"F. c #FFD9B3",
"G. c #FFDCB6",
"H. c #FFDFBE",
"J. c #FFE1C1",
"K. c #FFE1C4",
"L. c #FFE3C6",
"P. c #FFE4C6",
"I. c #FFE5CC",
"U. c #FFE6CE",
"Y. c #FFE8CF",
"T. c #FFE8D1",
"R. c #FFE9D4",
"E. c #FFEAD5",
"W. c #FFEBD5",
"Q. c #FFEBD6",
"!. c #FFEAD7",
"~. c #FFEDDB",
"^. c #FFEEDC",
"/. c #FFEEDD",
"(. c #FFEFDD",
"). c #FFF0E1",
"_. c #FFF2E4",
"`. c #FFF4E9",
"'. c #FFF6EE",
"]. c #FFF7EF",
"[. c #FFF9F2",
"{. c #FFFBF6",
"}. c #FFFBF7",
"|. c #FFFCF9",
" X c #FFFDFB",
".X c #FFFEFC",
"XX c #FFFEFD",
"oX c #FFFFFE",
"OX c white",
"+X c None",
/* pixels */
"+X+X+X+X+X+X+X+X+X+X+X+X+X+X+X+X+X+X+X+X+X+X+X+X+X+X+X+X+X+X+X+X",
"+X+X+X+X+X+X+X+X+X+X+X+X+X+X+X+X+X+X+X+X+X+X+X+X+X+X+X+X+X+X+X+X",
"+X+X+X+X+X+X+X+X+X+X+X+X+X+X+X+X+X+X+X+X+X+X+X+X+X+X+X+X+X+X+X+X",
"+X+X+X+X+X+X+X+X+XOXR.5.9.w.r.u.p.s.g.h.j.I.OX+X+X+X+X+X+X+X+X+X",
"+X+X+X+X+X+X+X+X/.;.OXU.4.q.l.c.v.x.k.d.Z.OXj.K.+X+X+X+X+X+X+X+X",
"+X+X+X+X+X+X+X[.7.$.=.>.<.2.5.9.w.r.y.i.s.f.h.OX!.+X+X+X+X+X+X+X",
"+X+X+X+X+X+XOX{  .o.#.&.-.,.1.3.5.9.w.r.u.p.d.g.m.OX+X+X+X+X+X+X",
"+X+X+X+X+X+X^ OX' }  .+.#.*.;.<.2.4.8.q.e.t.i.a.z.h.+X+X+X+X+X+X",
"+X+X+X+X+XOXR Q / _ ] | X.@.OXOXOXOX2.5.9.w.r.y.i.OXOX+X+X+X+X+X",
"+X+X+X+X+XF oXY W ~ ( ` OXOXb.#.&.0.OXOX3.5.9.w.r.u.p.+X+X+X+X+X",
"+X+X+X+XOXG.A H P T Q OX].' }  .+.#.*.n.OX2.4.8.q.e.OXOX+X+X+X+X",
"+X+X+XOXc E N C D J I OXQ / _ [ | X.@.$.OX>.<.2.5.9.w.r.OX+X+X+X",
"+X+X+X:.OXz v m B Z F OXU W ~ ( ' {  .o.#.&.-.,.1.3.6.'.i.+X+X+X",
"+X+XOXi d g l x b M V OXH P T Q %.O.' } ..+.#.*.;.<.2.4.S.OX+X+X",
"+X+X(.OXu a f h l c n OXOXD J I OX! / _ [ | X.@.$.-.>.<. XF.+X+X",
"+X+X6 OXw r i s f k z v V.OXOXOXOXY W ~ ( ' {  .o.#.&.-.,.1.+X+X",
"+X+X1 OX7 0 e t i d g l x b M OXOXOXOXOXQ ^ ) ' }  .+.#.*.;.+X+X",
"+X+XOXOX2 5 8 q r u a f h l E OXN C D OXOXR ! / _ [ | X.OX}.+X+X",
"+X+XOX; > < 2 6 9 w t i s f j z v m B Z OXL Y W ~ ( ' { 7.OX+X+X",
"+X+X+X}.OX: , 1 4 7 0 e t p d g l x b M |.M.H P T Q ^ OXQ.+X+X+X",
"+X+X+X+X& N.; : < 2 5 OXq r u a f h l c OXN Z D J I R ! +X+X+X+X",
"+X+X+X+XOXK & = ; > < OXOX9 w t i s f L.OXv m B Z F OXOX+X+X+X+X",
"+X+X+X+X+X+ OX% * - : , OXOXW.0 e C.OXOXg l x b M V S +X+X+X+X+X",
"+X+X+X+X+XOXO @ $ & * ; : < [.OXOXOXr u a f h l c E.OX+X+X+X+X+X",
"+X+X+X+X+X+X+.OXO # % & * ; > < 3 6 9 w t i s f B.G +X+X+X+X+X+X",
"+X+X+X+X+X+XOXX y O + # % * - : , 1 4 7 0 e t a d +X+X+X+X+X+X+X",
"+X+X+X+X+X+X+XOX. 4.o O @ $ & * ; : < 2 5 8 q P.OX+X+X+X+X+X+X+X",
"+X+X+X+X+X+X+X+XOX  OXOXT._.{..XXX X`.Y.OXOX6 OX+X+X+X+X+X+X+X+X",
"+X+X+X+X+X+X+X+X+X+XOX).A.H.R.~.~.Q.J.D.^.OX+X+X+X+X+X+X+X+X+X+X",
"+X+X+X+X+X+X+X+X+X+X+X+X+X+X+X+X+X+X+X+X+X+X+X+X+X+X+X+X+X+X+X+X",
"+X+X+X+X+X+X+X+X+X+X+X+X+X+X+X+X+X+X+X+X+X+X+X+X+X+X+X+X+X+X+X+X",
"+X+X+X+X+X+X+X+X+X+X+X+X+X+X+X+X+X+X+X+X+X+X+X+X+X+X+X+X+X+X+X+X"
};
