/* XPM */
static char *_2679_fe6a20d4b9627565dea10069afdfa70ddaa3cae9598105e315cbb19043c93e95[] = {
/* columns rows colors chars-per-pixel */
"128 128 55 1 ",
"  c #FF7F01",
". c #FF8305",
"X c #FF8609",
"o c #FF890D",
"O c #FF8D14",
"+ c #FF8F18",
"@ c #FF911C",
"# c #FF9523",
"$ c #FF9728",
"% c #FF992D",
"& c #FF9731",
"* c #FF9C34",
"= c #FF9E3A",
"- c #FFA03E",
"; c #FFA244",
": c #FFA64B",
"> c #FFA94D",
", c #FFA750",
"< c #FFA954",
"1 c #FFAC5B",
"2 c #FFB15D",
"3 c #FFAF61",
"4 c #FFB165",
"5 c #FFB46A",
"6 c #FFB771",
"7 c #FFBA74",
"8 c #FFBE7B",
"9 c #FFC07D",
"0 c #FFBF81",
"q c #FFC284",
"w c #FFC58B",
"e c #FFC88F",
"r c #FFC791",
"t c #FFCA94",
"y c #FFCE9B",
"u c #FFD09F",
"i c #FFCFA0",
"p c #FFD2A3",
"a c #FFD6AB",
"s c #FFD8AF",
"d c #FFDAB5",
"f c #FFDDBC",
"g c #FFE0BF",
"h c #FFE2C4",
"j c #FFE5CC",
"k c #FFE9D3",
"l c #FFEDDB",
"z c #FFF0DF",
"x c #FFEFE0",
"c c #FFF2E4",
"v c #FFF5EC",
"b c #FFF7F0",
"n c #FFFAF4",
"m c #FFFFFF",
"M c None",
/* pixels */
"MMMMMMMMMMMMMMMMMMMMMMMMMMMMMMMMMMMMMMMMMMMMMMMMMMMMMMMMMMMMMMMMMMMMMMMMMMMMMMMMMMMMMMMMMMMMMMMMMMMMMMMMMMMMMMMMMMMMMMMMMMMMMMMM",
"MMMMMMMMMMMMMMMMMMMMMMMMMMMMMMMMMMMMMMMMMMMMMMMMMMMMMMMMMMMMMMMMMMMMMMMMMMMMMMMMMMMMMMMMMMMMMMMMMMMMMMMMMMMMMMMMMMMMMMMMMMMMMMMM",
"MMMMMMMMMMMMMMMMMMMMMMMMMMMMMMMMMMMMMMMMMMMMMMMMMMMMMMMMMMMMMMMMMMMMMMMMMMMMMMMMMMMMMMMMMMMMMMMMMMMMMMMMMMMMMMMMMMMMMMMMMMMMMMMM",
"MMMMMMMMMMMMMMMMMMMMMMMMMMMMMMMMMMMMMMMMMMMMMMMMMMMMMMMMMMMMMMMMMMMMMMMMMMMMMMMMMMMMMMMMMMMMMMMMMMMMMMMMMMMMMMMMMMMMMMMMMMMMMMMM",
"MMMMMMMMMMMMMMMMMMMMMMMMMMMMMMMMMMMMMMMMMMMMMMMMMMMMMMMMMMMMMMMMMMMMMMMMMMMMMMMMMMMMMMMMMMMMMMMMMMMMMMMMMMMMMMMMMMMMMMMMMMMMMMMM",
"MMMMMMMMMMMMMMMMMMMMMMMMMMMMMMMMMMMMMMMMMMMMMMMMMMMMMMMMMMMMMMMMMMMMMMMMMMMMMMMMMMMMMMMMMMMMMMMMMMMMMMMMMMMMMMMMMMMMMMMMMMMMMMMM",
"MMMMMMMMMMMMMMMMMMMMMMMMMMMMMMMMMMMMMMMMMMMMMMMMMMMMMMMMMMMMMMMMMMMMMMMMMMMMMMMMMMMMMMMMMMMMMMMMMMMMMMMMMMMMMMMMMMMMMMMMMMMMMMMM",
"MMMMMMMMMMMMMMMMMMMMMMMMMMMMMMMMMMMMMMMMMMMMMMMMMMMMMMMMMMMMMMMMMMMMMMMMMMMMMMMMMMMMMMMMMMMMMMMMMMMMMMMMMMMMMMMMMMMMMMMMMMMMMMMM",
"MMMMMMMMMMMMMMMMMMMMMMMMMMMMMMMMMMMMMMMMMMMMMMMMMMMMMMMMMMMMMMMMMMMMMMMMMMMMMMMMMMMMMMMMMMMMMMMMMMMMMMMMMMMMMMMMMMMMMMMMMMMMMMMM",
"MMMMMMMMMMMMMMMMMMMMMMMMMMMMMMMMMMMMMMMMMMMMMMMMMMMMMMMMMMMMMMMMMMMMMMMMMMMMMMMMMMMMMMMMMMMMMMMMMMMMMMMMMMMMMMMMMMMMMMMMMMMMMMMM",
"MMMMMMMMMMMMMMMMMMMMMMMMMMMMMMMMMMMMMMMMMMMMMMMMMMMMMMMMMMMMMMMMMMMMMMMMMMMMMMMMMMMMMMMMMMMMMMMMMMMMMMMMMMMMMMMMMMMMMMMMMMMMMMMM",
"MMMMMMMMMMMMMMMMMMMMMMMMMMMMMMMMMMMMMMMMMMMMmmmmmmmmmmmmmmmmmmmmmmmmmmmmmmmmmmmmmmmmMMMMMMMMMMMMMMMMMMMMMMMMMMMMMMMMMMMMMMMMMMMM",
"MMMMMMMMMMMMMMMMMMMMMMMMMMMMMMMMMMMMMMMMmmmmmmmmmmmmmmmmmmmmmmmmmmmmmmmmmmmmmmmmmmmmmmmmMMMMMMMMMMMMMMMMMMMMMMMMMMMMMMMMMMMMMMMM",
"MMMMMMMMMMMMMMMMMMMMMMMMMMMMMMMMMMMMMmmmmmmmjy0544556888qqwwwrrrrrrrrrww0000866680ijnmmmmmmMMMMMMMMMMMMMMMMMMMMMMMMMMMMMMMMMMMMM",
"MMMMMMMMMMMMMMMMMMMMMMMMMMMMMMMMMMMmmmmmh3<<<1<1111111111133131333333334344444344445445gmmmmMMMMMMMMMMMMMMMMMMMMMMMMMMMMMMMMMMMM",
"MMMMMMMMMMMMMMMMMMMMMMMMMMMMMMMMMMmmmm0,<<<<<1<<<<<111111111313111333333333434344544454438mmmmMMMMMMMMMMMMMMMMMMMMMMMMMMMMMMMMMM",
"MMMMMMMMMMMMMMMMMMMMMMMMMMMMMMMMmmmmr,,,<,<1avmmmmmmmmmmmmmmmmmmmmmmmmmmmmmmmmmmmmmva4444440mmmMMMMMMMMMMMMMMMMMMMMMMMMMMMMMMMMM",
"MMMMMMMMMMMMMMMMMMMMMMMMMMMMMMMmmmb,,>,,1kmmmmmmmbvvbmnmmmmmmmmmmmmmmmmmmmnmnvvnmmmmmmmk44464xmmMMMMMMMMMMMMMMMMMMMMMMMMMMMMMMMM",
"MMMMMMMMMMMMMMMMMMMMMMMMMMMMMMmmmh>:>,1bmmmnt<<<<<1<1<1<1111111111311331333333333344rvmmmv4444ammMMMMMMMMMMMMMMMMMMMMMMMMMMMMMMM",
"MMMMMMMMMMMMMMMMMMMMMMMMMMMMMmmma::>>hmmmy,,,<<<<<,<1<<11<<1111111131133313333333343444tmmmf4450mmMMMMMMMMMMMMMMMMMMMMMMMMMMMMMM",
"MMMMMMMMMMMMMMMMMMMMMMMMMMMMMmmd:::>mmmi>,,,,,<,<<<<<1<1<<1111<11111331333133333343434444rmmm444tmmMMMMMMMMMMMMMMMMMMMMMMMMMMMMM",
"MMMMMMMMMMMMMMMMMMMMMMMMMMMMmml:;:<mmn>:>>,,,,,,,<,<<<<<<1<<1<11111111111333333333343434444vmm544fmmMMMMMMMMMMMMMMMMMMMMMMMMMMMM",
"MMMMMMMMMMMMMMMMMMMMMMMMMMMmmm;::<mmk::::::,>,,,<,<,<<<<<<1<11<11111113131131333333334444344dmm444bmMMMMMMMMMMMMMMMMMMMMMMMMMMMM",
"MMMMMMMMMMMMMMMMMMMMMMMMMMMmm>;;;mmf;:;::>:::,,>,,,<,<<<<<1<<<1111111111113131133333333344343imm444mmMMMMMMMMMMMMMMMMMMMMMMMMMMM",
"MMMMMMMMMMMMMMMMMMMMMMMMMMmmd;;;mmj::;::::::::::,,,,,<,<<<<<1<1<<11<11111111131333333333334444amn44tmmMMMMMMMMMMMMMMMMMMMMMMMMMM",
"MMMMMMMMMMMMMMMMMMMMMMMMMmmm;;;hmb;;;::;:::;::,:,:,,,,,,<<<<<<<<<1<111<111133131333133333333444lmd44mmMMMMMMMMMMMMMMMMMMMMMMMMMM",
"MMMMMMMMMMMMMMMMMMMMMMMMMmm8-;>mm;;;;:;:;;::::::::,,,,,<<,,<<<<1<11<1<11111111111313133333344344mm446mmMMMMMMMMMMMMMMMMMMMMMMMMM",
"MMMMMMMMMMMMMMMMMMMMMMMMmmm---mm5;;;;;:;;::::::::,:,>,,,,,<<<<<<<<<1<1<11111131111133313333333335mn44cmMMMMMMMMMMMMMMMMMMMMMMMMM",
"MMMMMMMMMMMMMMMMMMMMMMMMmm<==8mv;;-;;;;;;;:;::::::::>:,,,,,,,<<<<<<1<11<<111111131131333333333333jm844mmMMMMMMMMMMMMMMMMMMMMMMMM",
"MMMMMMMMMMMMMMMMMMMMMMMmmv-;;mm;-;;;;;;;;:;::;;:::::>>:>,,,,,<,<<<<<<<<1<11<<111111331133333333333mm34hmMMMMMMMMMMMMMMMMMMMMMMMM",
"MMMMMMMMMMMMMMMMMMMMMMMmm-==pmh-;--;;;;;;;;;;::;:::::::,,>,,,,,,,<<<<<1<<<111111111113113133333333pmi44mmMMMMMMMMMMMMMMMMMMMMMMM",
"MMMMMMMMMMMMMMMMMMMMMMmmh===mm--------;;;;;::;;;:;::::::>>>,,,,,,<,<<<<<1<<1<1<11111111313313133343mm33ymmMMMMMMMMMMMMMMMMMMMMMM",
"MMMMMMMMMMMMMMMMMMMMMMmm===kmy=-----;-;;;;;;;;;;;:;:::::::>>:>>,,,,,<<<<<<<1<1<111111111111313333330mh33mmMMMMMMMMMMMMMMMMMMMMMM",
"MMMMMMMMMMMMMMMMMMMMMmmw=*-mm=====------;-;;;;;;;::;;::::4dnmmmmmmmmmxy<<<<<<<11<1<11111131133113333nm338mmMMMMMMMMMMMMMMMMMMMMM",
"MMMMMMMMMMMMMMMMMMMMmmm**=nm5====-=------;-;;;;;:;;:;:8nmmmmmmmmmmmmmmmmmj1<<1<<1<<111111313113333134mv33nmMMMMMMMMMMMMMMMMMMMMM",
"MMMMMMMMMMMMMMMMMMMMmm1**2mn*=*======-----;-;;;;;;;;ammmmmmmmmmmmmmmmmmmmmmn4<1<1<1<11<11111311313333lm634mmMMMMMMMMMMMMMMMMMMMM",
"MMMMMMMMMMMMMMMMMMMmmv***mm-===========-=;;;-;-;;;qmmmmmmmmmmmmmmmmmmmmmmmmmmv<<<1<<<11111111111133333mm33jmMMMMMMMMMMMMMMMMMMMM",
"MMMMMMMMMMMMMMMMMMMmm=%*eml******=======-===-;=;;nmmmmmmmmma6:;:>>>1rlmmmmmmmmmr<<<11<<111<11111111131dmw33mmMMMMMMMMMMMMMMMMMMM",
"MMMMMMMMMMMMMMMMMMmmg%*%mm***=*=*=*=======;==;;>mmmmmmmv5;::::;::::::,>,dmmmmmmmj1<<<1<1111111111313131mm33ymmMMMMMMMMMMMMMMMMMM",
"MMMMMMMMMMMMMMMMMMmm%%%jmu%*%****=*==*======-=<mmmmmmc;;;:;;;:::::::>::,>>tmmmmmmx<<<1<<<<1<1<111111311wmf33mmMMMMMMMMMMMMMMMMMM",
"MMMMMMMMMMMMMMMMMmm9%%=mm-%%-%-%***=*=*======;mmmmmm2;;;;;;;;::;;:::::::,,,,lmmmmmk<<<<1<<11<11111111313nm336mmMMMMMMMMMMMMMMMMM",
"MMMMMMMMMMMMMMMMmmm$$%nm2%%%%%%-******=======mmmmmn;-;;-;;;;;;;:;:::;:>:::>:,rmmmmm0,<<<1<<11<11111111114mv11vmMMMMMMMMMMMMMMMMM",
"MMMMMMMMMMMMMMMMmm;$$4mn$%%-%%%%*****==*==*=hmmmmv-=-;-;;;;;;;;;:;:;::::::::>,8mmmmm,<<<<<1<<<1<<11111111lm633mmMMMMMMMMMMMMMMMM",
"MMMMMMMMMMMMMMMmmz$$$mm*$%%%%%%-*%**%***====mmmmm=-;-=-;;-;;;;;:-:;:;;::::::::,immmmk,<<<<<<<1<111<1111111mm13dmmMMMMMMMMMMMMMMM",
"MMMMMMMMMMMMMMMmm###pmh$$$%%%%%%%%**%*==*==hmmmm====--;=--;;;;;;;:;;::;:::::>::>nmmmm,,,<<<<<1<1<111111111imi11mmMMMMMMMMMMMMMMM",
"MMMMMMMMMMMMMMmmy#$$mm$$$%%%%%%%%**%***%***mmmmh=======;-----;-;;;;:;;;:;::;::::<mmmmw,,,<<<<<<<<<<11<,1111mm330mmMMMMMMMMMMMMMM",
"MMMMMMMMMMMMMmmm###cm8$$$$$%%%%%%%%%%****%=mmmm========-----;-;;-;;;;::;;:;:::::>mmmmx,,<,,<,<<<<<<<,1111116mk11nmMMMMMMMMMMMMMM",
"MMMMMMMMMMMMMmm>#@:mm##$$$$$$$%%%%*%%*%%**8mmmm**====-===--------;-;;;;;:;:;::::>ymmb<,,,,,<,<<<<11<1<<1111<vm333mmMMMMMMMMMMMMM",
"MMMMMMMMMMMMmmv#@#mm=####$$$$$$%$%%%%%%***pmmmc==*==*====--------;-;;;;;;;:;:;:::3m3>::,,,,,,<,<<<<<1<1<1<111mm11hmmMMMMMMMMMMMM",
"MMMMMMMMMMMMmm#@@eml#####$$$$$$$$%%%%*%%%%ammmk****==*===-==-----;-;;;;-;:;;;:;:;:::::,:>,,,,,,<<<<<<<<1<1<<1dmw11mmMMMMMMMMMMMM",
"MMMMMMMMMMMmmp@##mm@#####$#$#$$$$$%$%%%*%*ymmmn****=*==*=*====---;---;;;;;;;:;:;:::::::::,>,,,,,,<<<<<<<<111<1mm11qmmMMMMMMMMMMM",
"MMMMMMMMMMmmm@@@lmq#@#######$#$$$$$%$%$%%%5mmmm********=======-=----;--;;;;;;;;:;:;:::::::,:>,,,,,,<,<<<<<<<<17mj11nmMMMMMMMMMMM",
"MMMMMMMMMMmm2@@*mm@#########$#$$#$$$$%%%%%%mmmm:*****=**=*==*====-=--;;--;;;;;;;:;:;:::::::::>,,,,,<<<,<<<<1<1<vm113mmMMMMMMMMMM",
"MMMMMMMMMmmmO@@mm;@@@@#@@#######$$$$$$$$%%%mmmmn%%*******=*=======imt=--;--;;;;;;;;:;:;:::::::,:,,,,,<<<<<<<1<11mn11vmMMMMMMMMMM",
"MMMMMMMMMmm5@@-mm@@@#@@###@#######$#$$$%%$$ummmm4%*%******=**=====mmmm:---=;;;;;;;;;;:;::::::::,>>,,,,,<<<<<<<<1lm3<4mmMMMMMMMMM",
"MMMMMMMMMmmO@Onm:@@@@@@@@@###@#####$$$$$$$$$mmmmm*%*%%*******====immmm=---;---;;;;:;;;:;:;:::::::>>,,,,,,,<,<<<<1mc11mmMMMMMMMMM",
"MMMMMMMMmmj+O@mm+O@@@@@@@#@###@######$$$$$$$ymmmmm%**%*******=**=mmmm1==-----;;-;;;;;;;:;:;::::::>:::,,,,,<<<<<<1nm1<amMMMMMMMMM",
"MMMMMMMMmm=+Oqms++O@@@@@@@@@@##########$#$$$$nmmmmm*%%%*%******=ummmm===-=----;--;;;;;;;;;::;;:::::::,>,,,,,<,<<<tmw<<mmMMMMMMMM",
"MMMMMMMMmmO++mm$++@@@@@@@@@#@#@########$$$$$$$mmmmmm7%*%*%%****=mmmm1======-=---;-;;;;;;;::;:::;:::::,:,:,,,,<,<<<mv<1mmMMMMMMMM",
"MMMMMMMMmmOOOmm+++++O@@@@@@@@@#@@@#########$#$%mmmmmmn:$%*%***%ymmmm*=====-=-------;-;;;;;;;;;::::::::::,>,,,,,<<,mm<<cmMMMMMMMM",
"MMMMMMMmmkOOOmmOOO@O@@@O@@@@@@@#@###@######$$#$$mmmmmmmmd>%**%=mmmm1*=*======-=-----;--;-;;;;:;;:;::::::::,:,,,,,<vm<<amMMMMMMMM",
"MMMMMMMmmyOo:mzOOOOOOO@OO@@@@@@@@@@#@########$$$#kmmmmmmmmmmmkhmmmm%===***=====------;-;;;;;;;;:;:;::::::::,>,,,,,dm1<qmMMMMMMMM",
"MMMMMMMmm7OO6mdOOOO@@OO@@O@O@@@@@@@@@##@######$$$$>mmmmmmmmmmmmmmmmmly,*=*======-=----;--;;;;;;;;::;;:;:::>:::,,,,tm8<4mmMMMMMMM",
"MMMMMMMmm5oOqmuOOOOO+O@OO@@@@@O@@#@##@@#@########$#$4mmmmmmmmmmmmmmmmmmmmd==========------;-;;;;;;;;::;::::::,:>>>0mq>1mmMMMMMMM",
"MMMMMMMmm6oO9mpOoOOOOO+OO@@O@@@O@@@@@#@@#@##@####$#$#$$tmmmmmmmmmmmmmmmmmmmm7========----;--;;-;;;;;;;:::;::::::>>0m0<3mmMMMMMMM",
"MMMMMMMmmtoo4mhoOOOOOOOOOOO@OO@@@@@@@@@@@#@@#######$$$$$#$$2lmmmmmmmmmmmmmmmmm-*=======--==;-;;;;;;;;:;;:;::;:::::im5,8mMMMMMMMM",
"MMMMMMMmmhoO$mnOOoOOOOOOO+@O+@O@O@O@@@@@@@##@########$$##$#$mmmm>=5abmmmmmmmmmmy=*=====-=---;-;--;;;;;;:;::;::::::jm>:ymMMMMMMMM",
"MMMMMMMMmmooommOoOoOOOOOOOOOOO@OO@@@@@@@#@@@@#@##@######$$#ymmmm%$%%%%*2kmmmmmmml**=======---=-;-;;-;;;;:;;:;:::::mm:>lmMMMMMMMM",
"MMMMMMMMmmooommoooOOoOOOOOOOOOO@@@O@@O@@@@@@#@#####@#####$$mmmm>$%%%%%%***5mmmmmmc=*==*==-==----;;-;;;;;;;;:;:;:;:mm>:mmMMMMMMMM",
"MMMMMMMMmm+ookm1oOooOoOoOOOOOO@OOOO@@@@@@@@@@@@@@#########ymmmm#$$$%%%%%%%%*ammmmmk=**=======---==;-;;-;;;;;;;:::<mh::mmMMMMMMMM",
"MMMMMMMMmmpoX-mvoooOOOOoOOOOOOOOOO@O@O@@O@@@@@@@@#@@##@###mmmm>$$$$%%%%%%%*%*,mmmmm7*==========-=--;;--;-;;;;;:;;hm<:wmMMMMMMMMM",
"MMMMMMMMMmmooommoooooooOooOOOOOOO@OOO@OO@@@@@@@@@@@#@####tmmmm$#$$$$%$%%%%%%%*-mmmmm****===*===-=--=--;-;;;;;:;;:mm;;nmMMMMMMMMM",
"MMMMMMMMMmm*oXamyoooooooOOoOOOOOOOOOOO@+@@@O@@@@@#@#@@###mmmm>#$$$$$$$%%%%%%%%%1mmmmh=*=-%-%%---=-=;--;-;;-;;;;;8my::mmMMMMMMMMM",
"MMMMMMMMMmmnXXXmmoooooooooOoOoOOOOOOO+OOO@O@@@O@@@@@@#@@@#fmm@#####$$$$$%$%%%*%%hmmmm***%-%---%-=====;=;=;=;;;;;mm;:jmMMMMMMMMMM",
"MMMMMMMMMMmm#XXdmpoooooOoOoOoOOOOOOOOO+OOOO@O@O@@@@@@##@@##@;#####$$$#$$$$%%%%%%%mmmm7**-%%-%--%=========--;;-;qmp;;mmMMMMMMMMMM",
"MMMMMMMMMMmmm.XommooooooooooOoooOOOOOOO+@OOOO@@@@@O@@@@@@#@#@########$#$$$$$%%%%$cmmml%*%--%-%-%====-===-;=---;mm;;lmMMMMMMMMMMM",
"MMMMMMMMMMMmm1Xo2mvooXooooooOoooOoOOOOOOOOO@O@@@O@@@@@@@@@###@#@######$$#$$$$%$%%7mmmm%*%-%-%-%-*========-;=-;hm5;,mmMMMMMMMMMMM",
"MMMMMMMMMMMMmm...mm-XoXoXoooooOooOooOOOOOOOOOOOO@@O@@@@@@@@@@#@#@###$##$#$$$$$$%$=mmmm%%%%%%-%%-=**==========;mv;-mmMMMMMMMMMMMM",
"MMMMMMMMMMMMmmdXX+mmoXXooooooooooOoOOOoOOOOOOO5OO@@O@@@@@@@@@#@#@##@###$$##$$$$%$%mmmm%*%%%-%-%-**==*======;-nm;;wmMMMMMMMMMMMMM",
"MMMMMMMMMMMMMmmOXXhmeXXXXoooooooooOoooOoOOOO<mmOOOO@OO@O@@@@@@#@@#@#@######$$$$$$>mmmm%%*%%%%%-%*****=*=====7md--mmMMMMMMMMMMMMM",
"MMMMMMMMMMMMMmmn.X.mmXXXXooXXoooooOooOOOOO@mmmmOOOOO@O@O@@@@@@@@#@@##@########$$$ummmm$%%%%%-%-%*****=*=====mm==kmMMMMMMMMMMMMMM",
"MMMMMMMMMMMMMMmm>XX7mzXXXXXooXooooooooooooommmm#OOO@@OO@@O@@@@@@@@#@@#@######$#$#mmmms%$%%%%%%%%%%*****=*==dm5=:mmMMMMMMMMMMMMMM",
"MMMMMMMMMMMMMMMmm.X.mm$.XXXXXoXooooooOooOOommmmcOOOOO@O@O@O@@@O@@@@@@##@#######$-mmmm-$$%%%%%%%%*********==mn==mmMMMMMMMMMMMMMMM",
"MMMMMMMMMMMMMMMmmp.X#mmXXXXXXoXXXoooooooooOwmmmm=OOOOOOOOO@OO@@@@@@#@@@#@#@#####mmmmm$$$$%$%%%%-%%*%*%****vm-=7mmMMMMMMMMMMMMMMM",
"MMMMMMMMMMMMMMMMmmX.Xlm7.XXXXXXooXXooooooooOmmmmmOOOOO+O@OO@O@@@+@@@@@#@##@#@##jmmmm9$$$$$$%%%%%%*%*%****1mh=*mmMMMMMMMMMMMMMMMM",
"MMMMMMMMMMMMMMMMmmc...mmX.XX.Xo.XXoooXoooooo7mmmmmOOOOOOOOO@O@O@++@@@@@@@@@###dmmmmm###$$$$%$$%%%%%%**%*%mm*=dmMMMMMMMMMMMMMMMMM",
"MMMMMMMMMMMMMMMMMmm%..tmh.X.oo.oXXXXooXoooooonmmmmm-oOOOOO@OOOO@+@@+@@@@@#@@@zmmmmm=##$#$$$$$%%%%%%%%%%*emq==mmMMMMMMMMMMMMMMMMM",
"MMMMMMMMMMMMMMMMMMmm...mmo.X..o.XXoXXXoooooooommmmmmdOOOOOOOO@@O++@@@@@@@@@-mmmmmm8####$#$#$$$$$%%%%%%*%mm*%vmMMMMMMMMMMMMMMMMMM",
"MMMMMMMMMMMMMMMMMMmm7..>mn...X.XXXXXXXXoooooooommmmmmm7OOOOOO@OO++++O@@@@#cmmmmmmt#######$#$$$$$$%%%%%%jm>*,mmMMMMMMMMMMMMMMMMMM",
"MMMMMMMMMMMMMMMMMMMmm...nm-...XX.X.XXXXXXooXXooonmmmmmmmh%OOOOOOOO++++O7mmmmmmmm6@#@######$##$$$$$$%$%=mv%%mmMMMMMMMMMMMMMMMMMMM",
"MMMMMMMMMMMMMMMMMMMmmf..Omm..X.XX.XXXXXXXo.oXooooammmmmmmmmmke5<>19uvmmmmmmmmmm%#@@##@#######$#$$$$%$$nm%%wmMMMMMMMMMMMMMMMMMMMM",
"MMMMMMMMMMMMMMMMMMMMmmX..jm9.....X..XXXXXXoooXoooo@nmmmmmmmmmmmmmmmmmmmmmmmmmy@@@@@@@#@@@####$#$$#$$$1md%%mmMMMMMMMMMMMMMMMMMMMM",
"MMMMMMMMMMMMMMMMMMMMmmb...mm.....XX.XXXX.XXoXoo.oooo*nmmmmmmmmmmmmmmmmmmmmma@O@O@@@@@############$$$$mm$$hmMMMMMMMMMMMMMMMMMMMMM",
"MMMMMMMMMMMMMMMMMMMMMmm*..wmf........X..XXX..ooooXXooooymmmmmmmmmmmmmmmmv1@O@@@@@@@@@@@@#@@######$##wm9$*mmMMMMMMMMMMMMMMMMMMMMM",
"MMMMMMMMMMMMMMMMMMMMMMmm ..mmX....X....XXXXXXX.oooXooooooo-yzmmmmmmmh7#++O+OOO@@@@@@@@@#@#@#@#@#####mm#$vmMMMMMMMMMMMMMMMMMMMMMM",
"MMMMMMMMMMMMMMMMMMMMMMmm7 .>mv......X..X..XX.o.X.oXXooooooooooOoooOOoOOOO++OO@@O@O@@@@@@@@#@#######gm>#>mmMMMMMMMMMMMMMMMMMMMMMM",
"MMMMMMMMMMMMMMMMMMMMMMMmm.. mm$  ..........X.XXXXXXXXXoooooooooOOoOOoOOOOOOO@OO+@@@@O@@@@@@##@@####mn##mmMMMMMMMMMMMMMMMMMMMMMMM",
"MMMMMMMMMMMMMMMMMMMMMMMmmd .+mm.............X.XXXXXXXooXXooooooooOooOOoOOOOOOOO+OOO@@@@@@@@@@#@##@cm$#8mMMMMMMMMMMMMMMMMMMMMMMMM",
"MMMMMMMMMMMMMMMMMMMMMMMMmm.  xm1..........X.XXXXXXXXXXXXoooooooooooOoOOOOOOO+OO+O@@OO@@@@@@@@@#@@-mj##mmMMMMMMMMMMMMMMMMMMMMMMMM",
"MMMMMMMMMMMMMMMMMMMMMMMMmmx. .mm  . ..............XXXXXX.oXooooooOooOooOOoOOOOOOOOOO@OO@@@@@@@@@@mm@#amMMMMMMMMMMMMMMMMMMMMMMMMM",
"MMMMMMMMMMMMMMMMMMMMMMMMMmm+. amj ...............X.XXXXXoo.XXooooooooOoooOOoOOOOOO@O@O@@OO@@@@@@tmt#@mmMMMMMMMMMMMMMMMMMMMMMMMMM",
"MMMMMMMMMMMMMMMMMMMMMMMMMMmm  .mm- .  ............XXXXX..oooooXXoooooOoOOoOOOOOOOOOOOOOO@@O@@@O%mm@@lmMMMMMMMMMMMMMMMMMMMMMMMMMM",
"MMMMMMMMMMMMMMMMMMMMMMMMMMmm1  #mmX . . .........X..X..Xo.XXXXooXooooooooOooOoOOOOOOOOO+OO@@@@@mm#@*mmMMMMMMMMMMMMMMMMMMMMMMMMMM",
"MMMMMMMMMMMMMMMMMMMMMMMMMMMmm   tmm. .. ..........X..X.X.o.XXXXXXooooooooooOoOoOOOOOO+O+@O++O@nm8@@mmMMMMMMMMMMMMMMMMMMMMMMMMMMM",
"MMMMMMMMMMMMMMMMMMMMMMMMMMMmmc   kmm. ... ...........X..X.o.XXXXXooooooooooOoOOoOOOOOOOOOO@@Ommg@@dmMMMMMMMMMMMMMMMMMMMMMMMMMMMM",
"MMMMMMMMMMMMMMMMMMMMMMMMMMMMmm0.  xmm#   .  . .........X.X.XXXXXXXXXXXoooooooooOOoOOoOOOOOO@mmj@@>mmMMMMMMMMMMMMMMMMMMMMMMMMMMMM",
"MMMMMMMMMMMMMMMMMMMMMMMMMMMMMmm-   jmmi  ... ............Xo..XXXXXXXXXXoooooooOoooOoOOOOoO8mmdOO$mmMMMMMMMMMMMMMMMMMMMMMMMMMMMMM",
"MMMMMMMMMMMMMMMMMMMMMMMMMMMMMmmm&   5mmm>   .  .............X..XXXXXooXXXooooooooOoOooOO-mmm2OO#mmMMMMMMMMMMMMMMMMMMMMMMMMMMMMMM",
"MMMMMMMMMMMMMMMMMMMMMMMMMMMMMMmmm:   .nmmmw. .  ... .....X...X..X..XXXXXoooXooooooooOo9mmmc+O+%mmMMMMMMMMMMMMMMMMMMMMMMMMMMMMMMM",
"MMMMMMMMMMMMMMMMMMMMMMMMMMMMMMMmmmi    $nmmmmk7*..........XXooOOOOOOoOooXXXoooooo*7hmmmmn#OOO7mmMMMMMMMMMMMMMMMMMMMMMMMMMMMMMMMM",
"MMMMMMMMMMMMMMMMMMMMMMMMMMMMMMMMmmmnX     rmmmmmmmmmmmmmmmmmmmmmmmmmmmmmmmmmmmmmmmmmmmwoOOOOcmmMMMMMMMMMMMMMMMMMMMMMMMMMMMMMMMMM",
"MMMMMMMMMMMMMMMMMMMMMMMMMMMMMMMMMMmmmj       X<waggfaapyyttewwwqwqqweettuppadfhgse1OoOooooammmMMMMMMMMMMMMMMMMMMMMMMMMMMMMMMMMMM",
"MMMMMMMMMMMMMMMMMMMMMMMMMMMMMMMMMMMmmmmv=        . ... . ...........XX.XXXXXXXXooXooooo*lmmmMMMMMMMMMMMMMMMMMMMMMMMMMMMMMMMMMMMM",
"MMMMMMMMMMMMMMMMMMMMMMMMMMMMMMMMMMMMMmmmmmmi:.        .............X..X.X.XXXXXXXoo;tnmmmmMMMMMMMMMMMMMMMMMMMMMMMMMMMMMMMMMMMMMM",
"MMMMMMMMMMMMMMMMMMMMMMMMMMMMMMMMMMMMMMMMmmmmmmmmmmmmmmmmmmmmmmmmmmmmmmmmmmmmmmmmmmmmmmmmMMMMMMMMMMMMMMMMMMMMMMMMMMMMMMMMMMMMMMMM",
"MMMMMMMMMMMMMMMMMMMMMMMMMMMMMMMMMMMMMMMMMMMMmmmmmmmmmmmmmmmmmmmmmmmmmmmmmmmmmmmmmmmMMMMMMMMMMMMMMMMMMMMMMMMMMMMMMMMMMMMMMMMMMMMM",
"MMMMMMMMMMMMMMMMMMMMMMMMMMMMMMMMMMMMMMMMMMMMMMMMMMMMMMMMMMMMMMMMMMMMMMMMMMMMMMMMMMMMMMMMMMMMMMMMMMMMMMMMMMMMMMMMMMMMMMMMMMMMMMMM",
"MMMMMMMMMMMMMMMMMMMMMMMMMMMMMMMMMMMMMMMMMMMMMMMMMMMMMMMMMMMMMMMMMMMMMMMMMMMMMMMMMMMMMMMMMMMMMMMMMMMMMMMMMMMMMMMMMMMMMMMMMMMMMMMM",
"MMMMMMMMMMMMMMMMMMMMMMMMMMMMMMMMMMMMMMMMMMMMMMMMMMMMMMMMMMMMMMMMMMMMMMMMMMMMMMMMMMMMMMMMMMMMMMMMMMMMMMMMMMMMMMMMMMMMMMMMMMMMMMMM",
"MMMMMMMMMMMMMMMMMMMMMMMMMMMMMMMMMMMMMMMMMMMMMMMMMMMMMMMMMMMMMMMMMMMMMMMMMMMMMMMMMMMMMMMMMMMMMMMMMMMMMMMMMMMMMMMMMMMMMMMMMMMMMMMM",
"MMMMMMMMMMMMMMMMMMMMMMMMMMMMMMMMMMMMMMMMMMMMMMMMMMMMMMMMMMMMMMMMMMMMMMMMMMMMMMMMMMMMMMMMMMMMMMMMMMMMMMMMMMMMMMMMMMMMMMMMMMMMMMMM",
"MMMMMMMMMMMMMMMMMMMMMMMMMMMMMMMMMMMMMMMMMMMMMMMMMMMMMMMMMMMMMMMMMMMMMMMMMMMMMMMMMMMMMMMMMMMMMMMMMMMMMMMMMMMMMMMMMMMMMMMMMMMMMMMM",
"MMMMMMMMMMMMMMMMMMMMMMMMMMMMMMMMMMMMMMMMMMMMMMMMMMMMMMMMMMMMMMMMMMMMMMMMMMMMMMMMMMMMMMMMMMMMMMMMMMMMMMMMMMMMMMMMMMMMMMMMMMMMMMMM",
"MMMMMMMMMMMMMMMMMMMMMMMMMMMMMMMMMMMMMMMMMMMMMMMMMMMMMMMMMMMMMMMMMMMMMMMMMMMMMMMMMMMMMMMMMMMMMMMMMMMMMMMMMMMMMMMMMMMMMMMMMMMMMMMM",
"MMMMMMMMMMMMMMMMMMMMMMMMMMMMMMMMMMMMMMMMMMMMMMMMMMMMMMMMMMMMMMMMMMMMMMMMMMMMMMMMMMMMMMMMMMMMMMMMMMMMMMMMMMMMMMMMMMMMMMMMMMMMMMMM",
"MMMMMMMMMMMMMMMMMMMMMMMMMMMMMMMMMMMMMMMMMMMMMMMMMMMMMMMMMMMMMMMMMMMMMMMMMMMMMMMMMMMMMMMMMMMMMMMMMMMMMMMMMMMMMMMMMMMMMMMMMMMMMMMM",
"MMMMMMMMMMMMMMMMMMMMMMMMMMMMMMMMMMMMMMMMMMMMMMMMMMMMMMMMMMMMMMMMMMMMMMMMMMMMMMMMMMMMMMMMMMMMMMMMMMMMMMMMMMMMMMMMMMMMMMMMMMMMMMMM",
"MMMMMMMMMMMMMMMMMMMMMMMMMMMMMMMMMMMMMMMMMMMMMMMMMMMMMMMMMMMMMMMMMMMMMMMMMMMMMMMMMMMMMMMMMMMMMMMMMMMMMMMMMMMMMMMMMMMMMMMMMMMMMMMM"
};
