/* XPM */
static char *_5105_c028e11d0befaf5f19fbe413a90e5f39b4522a2ff9223d3fad26cb92bcf0198a[] = {
/* columns rows colors chars-per-pixel */
"64 64 46 1 ",
"  c #FF7F01",
". c #FF8305",
"X c #FF8709",
"o c #FF890D",
"O c #FF8D14",
"+ c #FF8F18",
"@ c #FF911C",
"# c #FF9524",
"$ c #FF9729",
"% c #FF992D",
"& c #FF9C34",
"* c #FF9F3A",
"= c #FFA03E",
"- c #FFA243",
"; c #FFA64B",
": c #FFA84D",
"> c #FFA750",
", c #FFA954",
"< c #FFAC5B",
"1 c #FFB15E",
"2 c #FFAF61",
"3 c #FFB165",
"4 c #FFB369",
"5 c #FFB86D",
"6 c #FFB773",
"7 c #FFBB76",
"8 c #FFC07F",
"9 c #FFC283",
"0 c #FFC48A",
"q c #FFC98F",
"w c #FFCB96",
"e c #FFCE9C",
"r c #FFD2A6",
"t c #FFD5AA",
"y c #FFDAB4",
"u c #FFDEBB",
"i c #FFE2C3",
"p c #FFE5CC",
"a c #FFE7D0",
"s c #FFE9D3",
"d c #FFEEDC",
"f c #FFF1E4",
"g c #FFF5EB",
"h c #FFFAF4",
"j c #FFFFFF",
"k c None",
/* pixels */
"kkkkkkkkkkkkkkkkkkkkkkkkkkkkkkkkkkkkkkkkkkkkkkkkkkkkkkkkkkkkkkkk",
"kkkkkkkkkkkkkkkkkkkkkkkkkkkkkkkkkkkkkkkkkkkkkkkkkkkkkkkkkkkkkkkk",
"kkkkkkkkkkkkkkkkkkkkkkkkkkkkkkkkkkkkkkkkkkkkkkkkkkkkkkkkkkkkkkkk",
"kkkkkkkkkkkkkkkkkkkkkkkkkkkkkkkkkkkkkkkkkkkkkkkkkkkkkkkkkkkkkkkk",
"kkkkkkkkkkkkkkkkkkkkkkkkkkkkkkkkkkkkkkkkkkkkkkkkkkkkkkkkkkkkkkkk",
"kkkkkkkkkkkkkkkkkkkkkkkkkkkkkkkkkkkkkkkkkkkkkkkkkkkkkkkkkkkkkkkk",
"kkkkkkkkkkkkkkkkkkkjjjjjjjjjjjjjjjjjjjjjjjjjjkkkkkkkkkkkkkkkkkkk",
"kkkkkkkkkkkkkkkkkjjd,,,,<,<<<<<2223222332434pjjkkkkkkkkkkkkkkkkk",
"kkkkkkkkkkkkkkkkjj;,,ajjjjjjjjjjjjjjjjjjjjj633jjkkkkkkkkkkkkkkkk",
"kkkkkkkkkkkkkkkjy;:jj9>,,,,,<<<<<<2<<222223gj03wjkkkkkkkkkkkkkkk",
"kkkkkkkkkkkkkkji;,j3;>,,,,,<,<<<<<<2222232332jj2rjkkkkkkkkkkkkkk",
"kkkkkkkkkkkkkjj;;j;;;;;>>,>,,,,<<<<<<2<2222242rj3jkkkkkkkkkkkkkk",
"kkkkkkkkkkkkkj--j--;;;;>;;,>,,,,,<<<<<<22222224id4jkkkkkkkkkkkkk",
"kkkkkkkkkkkkjp-j;--;-;;;;,;,,,,,,,,<<<<<2<222222j2rjkkkkkkkkkkkk",
"kkkkkkkkkkkkj=-j-----;-;;;;>,>,,,,,<<<<<<<2222222j2jkkkkkkkkkkkk",
"kkkkkkkkkkkj5*j=*------;;;;;;>;;,,,,,<,<<<<<2<222f45jkkkkkkkkkkk",
"kkkkkkkkkkkj*7f*====----;-;;;;wppt<,,<,<<<<<2<2222j2jkkkkkkkkkkk",
"kkkkkkkkkkj**j****===-----,jjjjjjjjjjr,,,,<<<<<<22er2jkkkkkkkkkk",
"kkkkkkkkkjj*f9******===--jjjjjjpihjjjjj4,<,<<<<<222j2jkkkkkkkkkk",
"kkkkkkkkkj%%j%&&&****==,jjj9-;-;;;;;<jjjd,<,,<<<<<<2h2jkkkkkkkkk",
"kkkkkkkkjs%j&&&&&&&****jjj=-----;;;;;;yjjy>,,<,<<<<<j<tjkkkkkkkk",
"kkkkkkkkj$%j$%%%&&&***jjh==------;-;;;;0jj>,,,<,<<<<<j<jkkkkkkkk",
"kkkkkkkj-#j$$%%&%&&&*:jj**==-=---;-;;;;;jjh,,,,,,<<<<f42jkkkkkkk",
"kkkkkkkj#ws#$$$%%%%%&jjw****===------;;;;jj>,>,,,,,<<<j<jkkkkkkk",
"kkkkkkj##j###$$$$%%&&jj&*******==-----;;;;;;;>,,,,<,,<7a<jkkkkkk",
"kkkkkjg@j*####$$$$%%%jj,&&&&***===------;;;;>;;,>,>,,,<j<pkkkkkk",
"kkkkkj@@j@@#####$$$$$tjj%&&&*****f*-----;--;;;;;>,,,,,<,j<jkkkkk",
"kkkkjf@j@@@@@#####$$$$jj=%&&&&&**jj*==-----;;;;;>;>>,,,,j,ukkkkk",
"kkkkj+Oj@@@@@#######$$djj&&&&&&*hju**-==-----;;;;;;>,,,,,h,jkkkk",
"kkkkjO3p++@@@@@@#####$$jjju%&%&&jj****===------;;;;;;;,;,j,jkkkk",
"kkkkjOj++++O@@@@@@#####$hjjjjr&hjy*&****==-=----;;;;;,;,,j,jkkkk",
"kkkkjOjOOOO+O@@@@#@####$#$jjjjjjjjjg*****=*-------;;;;;>;j,jkkkk",
"kkkkjojoOOO++++@@@@@@####$$$3jjjjjjjjjp******------;;;;;;j,jkkkk",
"kkkkjoh*OoOOOO++O@@@@#@######$jj%%:hjjjj******=-=-----;;;j;jkkkk",
"kkkkjo$hooOOOO+O@O@@@@@@#####hjy$%%%%&jjj&****===----;-;;j;jkkkk",
"kkkkj+ojooooOoOOOOO@@@@@@@@##jj#$$%%%%&jjj&*******=-----,i;jkkkk",
"kkkkkjoj#ooOOoOOOO@O+O@@@@#@:jy##$$%%%%&jj1&&******-=---j-jkkkkk",
"kkkkkjXXjooooooOOOOO++O@@@@@@#####$$$$%%1jj&%&&=*=**===;g-jkkkkk",
"kkkkkkjXieXooooooOOOOOO+@@@@@#@#####$$$$%jj&&&&&*****==j-jkkkkkk",
"kkkkkkj,XjXXooooooOOOO+O++@@@@@@@#####$$$jj%%%&&&*&***i4:jkkkkkk",
"kkkkkkkjX@jXXXooooooOjjuO++O@@@@@#######$jj%%%&&&&&***j=jkkkkkkk",
"kkkkkkkjgXjXXXXXoooooOjjOOOO@O@@@@@@####jji$%%%%%&%&&j*ikkkkkkkk",
"kkkkkkkkj.XjXXXXoXoooOjjjOO++O@@@@@@@##ujj##$$$%%%&&&j*jkkkkkkkk",
"kkkkkkkkkj.g<XXXoooXooojjjOOOOOO+@@@@@hjj1##$$$$%%%%j%jkkkkkkkkk",
"kkkkkkkkkj+.jX.XXXXXoXoojjjfOOO++++@qjjj0#####$$$%%7e&jkkkkkkkkk",
"kkkkkkkkkkj.4d....XXXXooojjjjjjjjjjjjjj@@@@#####$$$j%jkkkkkkkkkk",
"kkkkkkkkkkje.j....XXXXXoXoojjjjjjjjjj%@@@@@#######f*5jkkkkkkkkkk",
"kkkkkkkkkkkj.Xj.....XXXXXoooooO,1%O+O+O@@@@@@@####j#jkkkkkkkkkkk",
"kkkkkkkkkkkjj.j. ....XXXXXXXoooooOOOOOO+@O@@@@#@#j#skkkkkkkkkkkk",
"kkkkkkkkkkkkj  j.......XX.XXoXoooooOOOOO+++@@@@@@j#jkkkkkkkkkkkk",
"kkkkkkkkkkkkkj h8........XXXXXoooooOoOOOOO+O@@@@j@jkkkkkkkkkkkkk",
"kkkkkkkkkkkkkjo j . ......XXXXXXooooooOOOOO@OOOj:@jkkkkkkkkkkkkk",
"kkkkkkkkkkkkkkj  jo.. . ...XXXXXoXoooooooOOO++jp@jkkkkkkkkkkkkkk",
"kkkkkkkkkkkkkkkj  jf . ........XXXXooooOoOoOOj0+jkkkkkkkkkkkkkkk",
"kkkkkkkkkkkkkkkjj  ejjO... ....XXXXXXooooo9jjO+jkkkkkkkkkkkkkkkk",
"kkkkkkkkkkkkkkkkkj<   sjjjjjjjjjjjjjjjjjjj4oo=jkkkkkkkkkkkkkkkkk",
"kkkkkkkkkkkkkkkkkkjjf     ........XXXXXXoXopjjkkkkkkkkkkkkkkkkkk",
"kkkkkkkkkkkkkkkkkkkkkjjjjjjjjjjjjjjjjjjjjjjkkkkkkkkkkkkkkkkkkkkk",
"kkkkkkkkkkkkkkkkkkkkkkkkkkkkkkkkkkkkkkkkkkkkkkkkkkkkkkkkkkkkkkkk",
"kkkkkkkkkkkkkkkkkkkkkkkkkkkkkkkkkkkkkkkkkkkkkkkkkkkkkkkkkkkkkkkk",
"kkkkkkkkkkkkkkkkkkkkkkkkkkkkkkkkkkkkkkkkkkkkkkkkkkkkkkkkkkkkkkkk",
"kkkkkkkkkkkkkkkkkkkkkkkkkkkkkkkkkkkkkkkkkkkkkkkkkkkkkkkkkkkkkkkk",
"kkkkkkkkkkkkkkkkkkkkkkkkkkkkkkkkkkkkkkkkkkkkkkkkkkkkkkkkkkkkkkkk",
"kkkkkkkkkkkkkkkkkkkkkkkkkkkkkkkkkkkkkkkkkkkkkkkkkkkkkkkkkkkkkkkk"
};
